<?xml version="1.0" encoding="utf-8"?>
<!-- Generator: Adobe Illustrator 27.0.1, SVG Export Plug-In . SVG Version: 6.00 Build 0)  -->
<svg version="1.1" xmlns="http://www.w3.org/2000/svg" xmlns:xlink="http://www.w3.org/1999/xlink" x="0px" y="0px"
	 viewBox="0 0 1235.7 500" style="enable-background:new 0 0 1235.7 500;" xml:space="preserve">
<style type="text/css">
	.st0{fill:#FFFFFF;}
	.st1{fill:#00C6F4;}
</style>
<g id="BACKGROUND">
</g>
<g id="OBJECTS">
	<g>
		<path class="st0" d="M171.97,145.07c0-4.12,3.03-7.43,7.15-7.43s7.15,3.3,7.15,7.43v173.52h74.52c3.85,0,6.6,3.03,6.6,6.6
			c0,3.85-2.75,6.88-6.6,6.88h-81.67c-4.12,0-7.15-3.3-7.15-7.42V145.07z"/>
		<path class="st0" d="M282.25,260.56v-115.5c0-4.12,3.03-7.43,7.15-7.43s7.15,3.3,7.15,7.43v116.32c0,36.85,24.2,59.95,54.72,59.95
			c30.53,0,54.72-23.1,54.72-59.95V145.07c0-4.12,3.02-7.43,7.15-7.43s7.15,3.3,7.15,7.43v115.5c0,44.82-30.52,74.25-69.02,74.25
			C312.5,334.81,282.25,305.39,282.25,260.56z"/>
		<path class="st0" d="M580.34,140.67c1.93-2.2,3.58-3.03,6.05-3.03c4.12,0,7.15,3.3,7.15,7.43v106.7l93.5-111.1
			c1.93-2.2,3.58-3.03,6.05-3.03c3.85,0,7.15,3.3,7.15,7.43v181.5c0,3.85-3.3,7.42-7.15,7.42c-4.12,0-7.43-3.57-7.43-7.42V162.94
			l-92.12,109.72v53.9c0,3.85-3.03,7.42-7.15,7.42s-7.15-3.57-7.15-7.42V162.94l-141.07,168.3c-1.38,1.65-3.3,2.75-5.22,2.75
			c-3.85,0-6.88-3.3-6.88-6.87c0-1.65,0.55-3.03,1.93-4.68L580.34,140.67z"/>
		<path class="st0" d="M937.02,288.61c0-3.85,3.03-6.87,7.15-6.87c3.85,0,6.32,2.47,6.88,5.77c1.1,15.67,17.05,33.55,42.35,33.55
			c25.58,0,42.35-18.97,42.35-38.22c0-27.22-22.27-36.85-37.12-40.7l-13.47-3.58c-15.68-4.4-45.92-15.4-45.92-51.15
			c0-29.42,22.55-50.6,54.72-50.6c32.17,0,54.45,21.17,54.45,45.65c0,3.85-3.03,6.88-7.15,6.88s-6.32-2.75-6.88-6.05
			c-1.1-16.22-15.4-33-40.42-33c-25.02,0-40.15,18.15-40.15,37.95c0,27.22,25.85,35.2,38.22,38.5l12.37,3.3
			c15.4,4.12,45.65,14.57,45.65,53.62c0,27.22-23.93,51.15-56.65,51.15C961.49,334.81,937.02,311.44,937.02,288.61z"/>
	</g>
	<g>
		<g>
			<path class="st1" d="M825.21,157.08c13.64,4.56,26.03,11.72,36.85,21.29c10.85,9.6,19.5,21.08,25.7,34.11
				c6.42,13.48,9.88,27.94,10.29,42.98c0.6,22.14-5.24,43.18-16.96,61.26c1.76-1.69,3.47-3.45,5.12-5.27
				c8.74-9.66,15.5-20.68,20.08-32.74c4.85-12.79,7.12-26.42,6.73-40.53c-0.4-14.71-3.79-28.85-10.06-42.02
				c-6.07-12.74-14.53-23.97-25.14-33.35c-10.57-9.36-22.69-16.36-36.01-20.81c-10.63-3.55-21.73-5.35-32.99-5.35
				c-3.39,0-6.85,0.17-10.28,0.49c-25.49,2.42-48.18,13.32-65.64,31.52c14.29-9.22,30.68-14.89,48.09-16.54
				C796.13,150.66,811.01,152.33,825.21,157.08z"/>
		</g>
	</g>
</g>
<g id="DESIGNED_BY_FREEPIK">
</g>
</svg>
